<svg width="64" height="66" viewBox="0 0 64 66" fill="none" xmlns="http://www.w3.org/2000/svg">
<rect width="64" height="66" rx="10" fill="#712525"/>
<path d="M14.6061 33.0238C14.7144 33.071 14.8287 33.0942 14.9465 33.0942C15.2893 33.0942 15.5996 32.8906 15.7354 32.5752C15.9236 32.1403 15.7216 31.6333 15.2868 31.446C15.1785 31.3987 15.0642 31.3755 14.9473 31.3755C14.6036 31.3755 14.2933 31.5792 14.1575 31.8946C14.0665 32.1051 14.063 32.3388 14.1481 32.552C14.2323 32.766 14.3956 32.9327 14.6061 33.0238V33.0238Z" fill="white"/>
<path d="M51.4219 40.7812V39.5781C51.4219 38.2607 51.2887 36.9433 51.0274 35.6637C50.7721 34.4167 50.3915 33.1904 49.8956 32.0182C49.4083 30.8675 48.8059 29.7572 48.1046 28.7191C47.4102 27.6904 46.612 26.7236 45.7336 25.8445C44.8545 24.9662 43.8877 24.1678 42.859 23.4734C41.8209 22.7722 40.7105 22.1698 39.5598 21.6825C38.3876 21.1866 37.1613 20.8059 35.9144 20.5507C35.5546 20.4772 35.1917 20.4151 34.8268 20.362C35.2114 19.8225 35.4375 19.1623 35.4375 18.4375C35.4375 16.5421 33.8954 15 32 15C30.1046 15 28.5625 16.5421 28.5625 18.4375C28.5625 19.1626 28.7888 19.8231 29.1737 20.3627C28.526 20.4571 27.8839 20.5823 27.2511 20.7415C25.7515 21.1179 24.2966 21.6765 22.9276 22.4009C21.5827 23.1134 20.3194 23.9848 19.1738 24.9928C18.0334 25.9974 17.0099 27.1352 16.1342 28.3736C16.001 28.5609 15.9495 28.7895 15.9881 29.0155C16.0268 29.2416 16.1514 29.4392 16.3388 29.5716C16.4848 29.6755 16.6567 29.7297 16.8346 29.7297C17.1139 29.7297 17.376 29.5939 17.5367 29.3662C20.8565 24.6757 26.2637 21.875 32 21.875C36.7274 21.875 41.173 23.7166 44.5177 27.0605C47.8614 30.4052 49.7023 34.8507 49.7031 39.5781V40.7812H14.2969V39.5781C14.2969 38.4034 14.4129 37.2286 14.6406 36.0873C14.6862 35.8622 14.6406 35.6336 14.5134 35.442C14.3854 35.2512 14.192 35.1214 13.9669 35.0767C13.911 35.0647 13.8534 35.0595 13.7967 35.0595C13.3894 35.0595 13.0353 35.35 12.9554 35.7505C12.7053 37.0026 12.5781 38.2908 12.5781 39.5781V40.7812C11.1565 40.7812 10 41.9378 10 43.3594C10 44.781 11.1565 45.9375 12.5781 45.9375H12.9509L14.027 47.731C14.9535 49.2751 16.6477 50.2344 18.4485 50.2344H45.5515C47.3523 50.2344 49.0465 49.2751 49.973 47.731L51.0491 45.9375H51.4219C52.8435 45.9375 54 44.781 54 43.3594C54 41.9378 52.8435 40.7812 51.4219 40.7812V40.7812ZM30.2812 18.4375C30.2812 17.4898 31.0523 16.7188 32 16.7188C32.9477 16.7188 33.7188 17.4898 33.7188 18.4375C33.7188 19.3852 32.9477 20.1562 32 20.1562C31.0523 20.1562 30.2812 19.3852 30.2812 18.4375ZM48.4991 46.8467C47.8815 47.8762 46.752 48.5156 45.5515 48.5156H18.4485C17.248 48.5156 16.1186 47.8762 15.5009 46.8467L14.9553 45.9375H49.0447L48.4991 46.8467ZM51.4219 44.2188H12.5781C12.1043 44.2188 11.7188 43.8332 11.7188 43.3594C11.7188 42.8855 12.1043 42.5 12.5781 42.5H51.4219C51.8957 42.5 52.2812 42.8855 52.2812 43.3594C52.2812 43.8332 51.8957 44.2188 51.4219 44.2188Z" fill="white"/>
<path d="M46.9804 38.7272C47.02 38.7272 47.0596 38.7237 47.0991 38.7186C47.3267 38.6868 47.5278 38.569 47.6663 38.386C47.8047 38.203 47.8639 37.9769 47.8321 37.7492C47.6276 36.2694 47.1911 34.8067 46.5353 33.4016C46.3944 33.1 46.0885 32.9058 45.7559 32.9058C45.6304 32.9058 45.5084 32.9333 45.3932 32.9865C45.1853 33.0837 45.0271 33.2564 44.9489 33.4721C44.8707 33.6878 44.8811 33.9207 44.9782 34.1287C45.5608 35.3773 45.9484 36.675 46.1297 37.9847C46.1882 38.4075 46.5542 38.7263 46.9804 38.7272V38.7272Z" fill="white"/>
<path d="M43.7117 31.354C43.9068 31.354 44.0975 31.2861 44.2497 31.1641C44.4284 31.0206 44.541 30.8152 44.5659 30.5874C44.5908 30.3588 44.5255 30.1346 44.3812 29.9558C44.218 29.7521 43.973 29.6353 43.7108 29.6353C43.5166 29.6353 43.3251 29.7023 43.1729 29.8243C42.9941 29.9678 42.8824 30.1732 42.8575 30.401C42.8326 30.6296 42.8979 30.8538 43.0414 31.0326C43.2055 31.2371 43.4495 31.354 43.7117 31.354Z" fill="white"/>
</svg>
