<svg width="1674" height="11569" viewBox="0 0 1674 11569" fill="none" xmlns="http://www.w3.org/2000/svg">
<path d="M249 1575L316.55 1689.75H181.45L249 1575Z" fill="#D9D9D9" fill-opacity="0.2"/>
<path d="M275 1591L342.55 1705.75H207.45L275 1591Z" fill="#D9D9D9" fill-opacity="0.2"/>
<path d="M249 1575L316.55 1689.75H181.45L249 1575Z" fill="#D9D9D9" fill-opacity="0.2"/>
<path d="M275 1591L342.55 1705.75H207.45L275 1591Z" fill="#D9D9D9" fill-opacity="0.2"/>
<path d="M99.3299 1797.46L209.622 1924.23L39.0484 1954.31L99.3299 1797.46Z" fill="#D9D9D9" fill-opacity="0.2"/>
<path d="M132.33 1817.46L242.622 1944.23L72.0484 1974.31L132.33 1817.46Z" fill="#D9D9D9" fill-opacity="0.2"/>
<path d="M99.3299 1797.46L209.622 1924.23L39.0484 1954.31L99.3299 1797.46Z" fill="#D9D9D9" fill-opacity="0.2"/>
<path d="M132.33 1817.46L242.622 1944.23L72.0484 1974.31L132.33 1817.46Z" fill="#D9D9D9" fill-opacity="0.2"/>
<path d="M1326 1817L1393.55 1931.75H1258.45L1326 1817Z" fill="#D9D9D9" fill-opacity="0.2"/>
<path d="M1384.5 1833L1480.2 1989.75H1288.8L1384.5 1833Z" fill="#D9D9D9" fill-opacity="0.2"/>
<path d="M1428.5 1843L1524.2 1999.75H1332.8L1428.5 1843Z" fill="#D9D9D9" fill-opacity="0.2"/>
<path d="M1274.5 1509L1370.2 1665.75H1178.8L1274.5 1509Z" fill="#D9D9D9" fill-opacity="0.2"/>
<path d="M1318.5 1519L1414.2 1675.75H1222.8L1318.5 1519Z" fill="#D9D9D9" fill-opacity="0.2"/>
<path d="M693.098 1599.17L713.538 1730.74L587.972 1680.89L693.098 1599.17Z" fill="#D9D9D9" fill-opacity="0.2"/>
<path d="M711.36 1623.63L731.799 1755.21L606.233 1705.36L711.36 1623.63Z" fill="#D9D9D9" fill-opacity="0.2"/>
<path d="M489 2211L574.737 2379H403.263L489 2211Z" fill="#D9D9D9" fill-opacity="0.2"/>
<path d="M522 2234L607.737 2402H436.263L522 2234Z" fill="#D9D9D9" fill-opacity="0.2"/>
<path d="M1063 2613L1148.74 2781H977.263L1063 2613Z" fill="#D9D9D9" fill-opacity="0.2"/>
<path d="M1089 2633L1174.74 2801H1003.26L1089 2633Z" fill="#D9D9D9" fill-opacity="0.2"/>
<path d="M1332.45 2910.7L1387.71 3091.04L1218.84 3061.26L1332.45 2910.7Z" fill="#D9D9D9" fill-opacity="0.2"/>
<path d="M1358.45 2924.7L1413.71 3105.04L1244.84 3075.26L1358.45 2924.7Z" fill="#D9D9D9" fill-opacity="0.2"/>
<path d="M483.694 3027.75L621.719 3156.3L460.587 3214.95L483.694 3027.75Z" fill="#D9D9D9" fill-opacity="0.2"/>
<path d="M515.694 3041.75L653.719 3170.3L492.587 3228.95L515.694 3041.75Z" fill="#D9D9D9" fill-opacity="0.2"/>
<path d="M1350.84 2256.61L1453.56 2341.34L1326.61 2387.55L1350.84 2256.61Z" fill="#D9D9D9" fill-opacity="0.2"/>
<path d="M1376.84 2272.61L1479.56 2357.34L1352.61 2403.55L1376.84 2272.61Z" fill="#D9D9D9" fill-opacity="0.2"/>
<path d="M653 2737L720.55 2851.75H585.45L653 2737Z" fill="#D9D9D9" fill-opacity="0.2"/>
<path d="M683 2756L750.55 2870.75H615.45L683 2756Z" fill="#D9D9D9" fill-opacity="0.2"/>
<path d="M251.164 2836.61L275.394 2967.55L148.441 2921.34L251.164 2836.61Z" fill="#D9D9D9" fill-opacity="0.2"/>
<path d="M265.164 2848.61L289.394 2979.55L162.441 2933.34L265.164 2848.61Z" fill="#D9D9D9" fill-opacity="0.2"/>
<path d="M242 3177L309.55 3291.75H174.45L242 3177Z" fill="#D9D9D9" fill-opacity="0.2"/>
<path d="M260 3193L327.55 3307.75H192.45L260 3193Z" fill="#D9D9D9" fill-opacity="0.2"/>
<path d="M200 2466L267.55 2580.75H132.45L200 2466Z" fill="#D9D9D9" fill-opacity="0.2"/>
<path d="M221 2480L288.55 2594.75H153.45L221 2480Z" fill="#D9D9D9" fill-opacity="0.2"/>
<path d="M249 2026L316.55 2140.75H181.45L249 2026Z" fill="#D9D9D9" fill-opacity="0.2"/>
<path d="M275 2042L342.55 2156.75H207.45L275 2042Z" fill="#D9D9D9" fill-opacity="0.2"/>
<path d="M726 1874L793.55 1988.75H658.45L726 1874Z" fill="#D9D9D9" fill-opacity="0.2"/>
<path d="M752 1890L819.55 2004.75H684.45L752 1890Z" fill="#D9D9D9" fill-opacity="0.2"/>
<path d="M930 2211L997.55 2325.75H862.45L930 2211Z" fill="#D9D9D9" fill-opacity="0.2"/>
<path d="M956 2227L1023.55 2341.75H888.45L956 2227Z" fill="#D9D9D9" fill-opacity="0.2"/>
<path d="M844 1330L911.55 1444.75H776.45L844 1330Z" fill="#D9D9D9" fill-opacity="0.2"/>
<path d="M870 1346L937.55 1460.75H802.45L870 1346Z" fill="#D9D9D9" fill-opacity="0.2"/>
<path d="M444.665 1161.27L472.034 1291.59L344.008 1248.44L444.665 1161.27Z" fill="#D9D9D9" fill-opacity="0.2"/>
<path d="M464.194 1184.74L491.563 1315.05L363.537 1271.91L464.194 1184.74Z" fill="#D9D9D9" fill-opacity="0.2"/>
<path d="M1188 2094L1255.55 2208.75H1120.45L1188 2094Z" fill="#D9D9D9" fill-opacity="0.2"/>
<path d="M1214 2110L1281.55 2224.75H1146.45L1214 2110Z" fill="#D9D9D9" fill-opacity="0.2"/>
<circle cx="158.5" cy="833.5" r="121.5" fill="#D9D9D9" fill-opacity="0.2"/>
<circle cx="745.5" cy="121.5" r="121.5" fill="#D9D9D9" fill-opacity="0.2"/>
<circle cx="1551.5" cy="608.5" r="121.5" fill="#D9D9D9" fill-opacity="0.2"/>
<circle cx="280" cy="328" r="180" fill="#D9D9D9" fill-opacity="0.2"/>
<circle cx="1223" cy="270" r="180" fill="#D9D9D9" fill-opacity="0.2"/>
<circle cx="1004" cy="799" r="180" fill="#D9D9D9" fill-opacity="0.2"/>
<circle cx="659.5" cy="1084.5" r="106.5" fill="#D9D9D9" fill-opacity="0.2"/>
<path d="M1425 4557L1357.45 4442.25L1492.55 4442.25L1425 4557Z" fill="#D9D9D9" fill-opacity="0.2"/>
<path d="M1399 4541L1331.45 4426.25L1466.55 4426.25L1399 4541Z" fill="#D9D9D9" fill-opacity="0.2"/>
<path d="M1425 4557L1357.45 4442.25L1492.55 4442.25L1425 4557Z" fill="#D9D9D9" fill-opacity="0.2"/>
<path d="M1399 4541L1331.45 4426.25L1466.55 4426.25L1399 4541Z" fill="#D9D9D9" fill-opacity="0.2"/>
<path d="M1574.67 4334.54L1464.38 4207.77L1634.95 4177.69L1574.67 4334.54Z" fill="#D9D9D9" fill-opacity="0.2"/>
<path d="M1541.67 4314.54L1431.38 4187.77L1601.95 4157.69L1541.67 4314.54Z" fill="#D9D9D9" fill-opacity="0.2"/>
<path d="M1574.67 4334.54L1464.38 4207.77L1634.95 4177.69L1574.67 4334.54Z" fill="#D9D9D9" fill-opacity="0.2"/>
<path d="M1541.67 4314.54L1431.38 4187.77L1601.95 4157.69L1541.67 4314.54Z" fill="#D9D9D9" fill-opacity="0.2"/>
<path d="M348 4315L280.45 4200.25L415.55 4200.25L348 4315Z" fill="#D9D9D9" fill-opacity="0.2"/>
<path d="M289.5 4299L193.804 4142.25L385.196 4142.25L289.5 4299Z" fill="#D9D9D9" fill-opacity="0.2"/>
<path d="M245.5 4289L149.804 4132.25L341.196 4132.25L245.5 4289Z" fill="#D9D9D9" fill-opacity="0.2"/>
<path d="M399.5 4623L303.804 4466.25L495.196 4466.25L399.5 4623Z" fill="#D9D9D9" fill-opacity="0.2"/>
<path d="M355.5 4613L259.804 4456.25L451.196 4456.25L355.5 4613Z" fill="#D9D9D9" fill-opacity="0.2"/>
<path d="M980.902 4532.83L960.463 4401.26L1086.03 4451.11L980.902 4532.83Z" fill="#D9D9D9" fill-opacity="0.2"/>
<path d="M962.641 4508.37L942.201 4376.79L1067.77 4426.64L962.641 4508.37Z" fill="#D9D9D9" fill-opacity="0.2"/>
<path d="M1185 3921L1099.26 3753L1270.74 3753L1185 3921Z" fill="#D9D9D9" fill-opacity="0.2"/>
<path d="M1152 3898L1066.26 3730L1237.74 3730L1152 3898Z" fill="#D9D9D9" fill-opacity="0.2"/>
<path d="M611 3519L525.264 3351L696.737 3351L611 3519Z" fill="#D9D9D9" fill-opacity="0.2"/>
<path d="M585 3499L499.264 3331L670.737 3331L585 3499Z" fill="#D9D9D9" fill-opacity="0.2"/>
<path d="M341.552 3221.3L286.291 3040.96L455.159 3070.74L341.552 3221.3Z" fill="#D9D9D9" fill-opacity="0.2"/>
<path d="M315.552 3207.3L260.291 3026.96L429.159 3056.74L315.552 3207.3Z" fill="#D9D9D9" fill-opacity="0.2"/>
<path d="M1190.31 3104.25L1052.28 2975.7L1213.41 2917.05L1190.31 3104.25Z" fill="#D9D9D9" fill-opacity="0.2"/>
<path d="M1158.31 3090.25L1020.28 2961.7L1181.41 2903.05L1158.31 3090.25Z" fill="#D9D9D9" fill-opacity="0.2"/>
<path d="M323.165 3875.39L220.442 3790.66L347.394 3744.45L323.165 3875.39Z" fill="#D9D9D9" fill-opacity="0.2"/>
<path d="M297.165 3859.39L194.442 3774.66L321.394 3728.45L297.165 3859.39Z" fill="#D9D9D9" fill-opacity="0.2"/>
<path d="M1021 3395L953.45 3280.25L1088.55 3280.25L1021 3395Z" fill="#D9D9D9" fill-opacity="0.2"/>
<path d="M991 3376L923.45 3261.25L1058.55 3261.25L991 3376Z" fill="#D9D9D9" fill-opacity="0.2"/>
<path d="M1422.84 3295.39L1398.61 3164.45L1525.56 3210.66L1422.84 3295.39Z" fill="#D9D9D9" fill-opacity="0.2"/>
<path d="M1408.84 3283.39L1384.61 3152.45L1511.56 3198.66L1408.84 3283.39Z" fill="#D9D9D9" fill-opacity="0.2"/>
<path d="M1432 2955L1364.45 2840.25L1499.55 2840.25L1432 2955Z" fill="#D9D9D9" fill-opacity="0.2"/>
<path d="M1414 2939L1346.45 2824.25L1481.55 2824.25L1414 2939Z" fill="#D9D9D9" fill-opacity="0.2"/>
<path d="M1474 3666L1406.45 3551.25L1541.55 3551.25L1474 3666Z" fill="#D9D9D9" fill-opacity="0.2"/>
<path d="M1453 3652L1385.45 3537.25L1520.55 3537.25L1453 3652Z" fill="#D9D9D9" fill-opacity="0.2"/>
<path d="M1425 4106L1357.45 3991.25L1492.55 3991.25L1425 4106Z" fill="#D9D9D9" fill-opacity="0.2"/>
<path d="M1399 4090L1331.45 3975.25L1466.55 3975.25L1399 4090Z" fill="#D9D9D9" fill-opacity="0.2"/>
<path d="M948 4258L880.45 4143.25L1015.55 4143.25L948 4258Z" fill="#D9D9D9" fill-opacity="0.2"/>
<path d="M922 4242L854.45 4127.25L989.55 4127.25L922 4242Z" fill="#D9D9D9" fill-opacity="0.2"/>
<path d="M744 3921L676.45 3806.25L811.55 3806.25L744 3921Z" fill="#D9D9D9" fill-opacity="0.2"/>
<path d="M718 3905L650.45 3790.25L785.55 3790.25L718 3905Z" fill="#D9D9D9" fill-opacity="0.2"/>
<path d="M830 4802L762.45 4687.25L897.55 4687.25L830 4802Z" fill="#D9D9D9" fill-opacity="0.2"/>
<path d="M804 4786L736.45 4671.25L871.55 4671.25L804 4786Z" fill="#D9D9D9" fill-opacity="0.2"/>
<path d="M1229.33 4970.73L1201.97 4840.41L1329.99 4883.56L1229.33 4970.73Z" fill="#D9D9D9" fill-opacity="0.2"/>
<path d="M1209.81 4947.26L1182.44 4816.95L1310.46 4860.09L1209.81 4947.26Z" fill="#D9D9D9" fill-opacity="0.2"/>
<path d="M486 4038L418.45 3923.25L553.55 3923.25L486 4038Z" fill="#D9D9D9" fill-opacity="0.2"/>
<path d="M460 4022L392.45 3907.25L527.55 3907.25L460 4022Z" fill="#D9D9D9" fill-opacity="0.2"/>
<circle cx="1515.5" cy="5298.5" r="121.5" transform="rotate(-180 1515.5 5298.5)" fill="#D9D9D9" fill-opacity="0.2"/>
<circle cx="928.5" cy="6010.5" r="121.5" transform="rotate(-180 928.5 6010.5)" fill="#D9D9D9" fill-opacity="0.2"/>
<circle cx="122.5" cy="5523.5" r="121.5" transform="rotate(-180 122.5 5523.5)" fill="#D9D9D9" fill-opacity="0.2"/>
<circle cx="1394" cy="5804" r="180" transform="rotate(-180 1394 5804)" fill="#D9D9D9" fill-opacity="0.2"/>
<circle cx="451" cy="5862" r="180" transform="rotate(-180 451 5862)" fill="#D9D9D9" fill-opacity="0.2"/>
<circle cx="670" cy="5333" r="180" transform="rotate(-180 670 5333)" fill="#D9D9D9" fill-opacity="0.2"/>
<circle cx="1014.5" cy="5047.5" r="106.5" transform="rotate(-180 1014.5 5047.5)" fill="#D9D9D9" fill-opacity="0.2"/>
<path d="M1425 9994L1357.45 9879.25L1492.55 9879.25L1425 9994Z" fill="#D9D9D9" fill-opacity="0.2"/>
<path d="M1399 9978L1331.45 9863.25L1466.55 9863.25L1399 9978Z" fill="#D9D9D9" fill-opacity="0.2"/>
<path d="M1425 9994L1357.45 9879.25L1492.55 9879.25L1425 9994Z" fill="#D9D9D9" fill-opacity="0.2"/>
<path d="M1399 9978L1331.45 9863.25L1466.55 9863.25L1399 9978Z" fill="#D9D9D9" fill-opacity="0.2"/>
<path d="M1574.67 9771.54L1464.38 9644.77L1634.95 9614.69L1574.67 9771.54Z" fill="#D9D9D9" fill-opacity="0.2"/>
<path d="M1541.67 9751.54L1431.38 9624.77L1601.95 9594.69L1541.67 9751.54Z" fill="#D9D9D9" fill-opacity="0.2"/>
<path d="M1574.67 9771.54L1464.38 9644.77L1634.95 9614.69L1574.67 9771.54Z" fill="#D9D9D9" fill-opacity="0.2"/>
<path d="M1541.67 9751.54L1431.38 9624.77L1601.95 9594.69L1541.67 9751.54Z" fill="#D9D9D9" fill-opacity="0.2"/>
<path d="M348 9752L280.45 9637.25L415.55 9637.25L348 9752Z" fill="#D9D9D9" fill-opacity="0.2"/>
<path d="M289.5 9736L193.804 9579.25L385.196 9579.25L289.5 9736Z" fill="#D9D9D9" fill-opacity="0.2"/>
<path d="M245.5 9726L149.804 9569.25L341.196 9569.25L245.5 9726Z" fill="#D9D9D9" fill-opacity="0.2"/>
<path d="M399.5 10060L303.804 9903.25L495.196 9903.25L399.5 10060Z" fill="#D9D9D9" fill-opacity="0.2"/>
<path d="M355.5 10050L259.804 9893.25L451.196 9893.25L355.5 10050Z" fill="#D9D9D9" fill-opacity="0.2"/>
<path d="M980.902 9969.83L960.463 9838.26L1086.03 9888.11L980.902 9969.83Z" fill="#D9D9D9" fill-opacity="0.2"/>
<path d="M962.641 9945.37L942.201 9813.79L1067.77 9863.64L962.641 9945.37Z" fill="#D9D9D9" fill-opacity="0.2"/>
<path d="M1185 9358L1099.26 9190L1270.74 9190L1185 9358Z" fill="#D9D9D9" fill-opacity="0.2"/>
<path d="M1152 9335L1066.26 9167L1237.74 9167L1152 9335Z" fill="#D9D9D9" fill-opacity="0.2"/>
<path d="M611 8956L525.264 8788L696.737 8788L611 8956Z" fill="#D9D9D9" fill-opacity="0.2"/>
<path d="M585 8936L499.264 8768L670.737 8768L585 8936Z" fill="#D9D9D9" fill-opacity="0.2"/>
<path d="M341.552 8658.3L286.291 8477.96L455.159 8507.74L341.552 8658.3Z" fill="#D9D9D9" fill-opacity="0.2"/>
<path d="M315.552 8644.3L260.291 8463.96L429.159 8493.74L315.552 8644.3Z" fill="#D9D9D9" fill-opacity="0.2"/>
<path d="M1190.31 8541.25L1052.28 8412.7L1213.41 8354.05L1190.31 8541.25Z" fill="#D9D9D9" fill-opacity="0.2"/>
<path d="M1158.31 8527.25L1020.28 8398.7L1181.41 8340.05L1158.31 8527.25Z" fill="#D9D9D9" fill-opacity="0.2"/>
<path d="M323.165 9312.39L220.442 9227.66L347.394 9181.45L323.165 9312.39Z" fill="#D9D9D9" fill-opacity="0.2"/>
<path d="M297.165 9296.39L194.442 9211.66L321.394 9165.45L297.165 9296.39Z" fill="#D9D9D9" fill-opacity="0.2"/>
<path d="M1021 8832L953.45 8717.25L1088.55 8717.25L1021 8832Z" fill="#D9D9D9" fill-opacity="0.2"/>
<path d="M991 8813L923.45 8698.25L1058.55 8698.25L991 8813Z" fill="#D9D9D9" fill-opacity="0.2"/>
<path d="M1422.84 8732.39L1398.61 8601.45L1525.56 8647.66L1422.84 8732.39Z" fill="#D9D9D9" fill-opacity="0.2"/>
<path d="M1408.84 8720.39L1384.61 8589.45L1511.56 8635.66L1408.84 8720.39Z" fill="#D9D9D9" fill-opacity="0.2"/>
<path d="M1432 8392L1364.45 8277.25L1499.55 8277.25L1432 8392Z" fill="#D9D9D9" fill-opacity="0.2"/>
<path d="M1414 8376L1346.45 8261.25L1481.55 8261.25L1414 8376Z" fill="#D9D9D9" fill-opacity="0.2"/>
<path d="M1474 9103L1406.45 8988.25L1541.55 8988.25L1474 9103Z" fill="#D9D9D9" fill-opacity="0.2"/>
<path d="M1453 9089L1385.45 8974.25L1520.55 8974.25L1453 9089Z" fill="#D9D9D9" fill-opacity="0.2"/>
<path d="M1425 9543L1357.45 9428.25L1492.55 9428.25L1425 9543Z" fill="#D9D9D9" fill-opacity="0.2"/>
<path d="M1399 9527L1331.45 9412.25L1466.55 9412.25L1399 9527Z" fill="#D9D9D9" fill-opacity="0.2"/>
<path d="M948 9695L880.45 9580.25L1015.55 9580.25L948 9695Z" fill="#D9D9D9" fill-opacity="0.2"/>
<path d="M922 9679L854.45 9564.25L989.55 9564.25L922 9679Z" fill="#D9D9D9" fill-opacity="0.2"/>
<path d="M744 9358L676.45 9243.25L811.55 9243.25L744 9358Z" fill="#D9D9D9" fill-opacity="0.2"/>
<path d="M718 9342L650.45 9227.25L785.55 9227.25L718 9342Z" fill="#D9D9D9" fill-opacity="0.2"/>
<path d="M830 10239L762.45 10124.2L897.55 10124.2L830 10239Z" fill="#D9D9D9" fill-opacity="0.2"/>
<path d="M804 10223L736.45 10108.2L871.55 10108.2L804 10223Z" fill="#D9D9D9" fill-opacity="0.2"/>
<path d="M1229.33 10407.7L1201.97 10277.4L1329.99 10320.6L1229.33 10407.7Z" fill="#D9D9D9" fill-opacity="0.2"/>
<path d="M1209.81 10384.3L1182.44 10253.9L1310.46 10297.1L1209.81 10384.3Z" fill="#D9D9D9" fill-opacity="0.2"/>
<path d="M486 9475L418.45 9360.25L553.55 9360.25L486 9475Z" fill="#D9D9D9" fill-opacity="0.2"/>
<path d="M460 9459L392.45 9344.25L527.55 9344.25L460 9459Z" fill="#D9D9D9" fill-opacity="0.2"/>
<circle cx="1515.5" cy="10735.5" r="121.5" transform="rotate(-180 1515.5 10735.5)" fill="#D9D9D9" fill-opacity="0.2"/>
<circle cx="928.5" cy="11447.5" r="121.5" transform="rotate(-180 928.5 11447.5)" fill="#D9D9D9" fill-opacity="0.2"/>
<circle cx="122.5" cy="10960.5" r="121.5" transform="rotate(-180 122.5 10960.5)" fill="#D9D9D9" fill-opacity="0.2"/>
<circle cx="1394" cy="11241" r="180" transform="rotate(-180 1394 11241)" fill="#D9D9D9" fill-opacity="0.2"/>
<circle cx="451" cy="11299" r="180" transform="rotate(-180 451 11299)" fill="#D9D9D9" fill-opacity="0.2"/>
<circle cx="670" cy="10770" r="180" transform="rotate(-180 670 10770)" fill="#D9D9D9" fill-opacity="0.2"/>
<circle cx="1014.5" cy="10484.5" r="106.5" transform="rotate(-180 1014.5 10484.5)" fill="#D9D9D9" fill-opacity="0.2"/>
<path d="M249 7012L316.55 7126.75L181.45 7126.75L249 7012Z" fill="#D9D9D9" fill-opacity="0.2"/>
<path d="M275 7028L342.55 7142.75L207.45 7142.75L275 7028Z" fill="#D9D9D9" fill-opacity="0.2"/>
<path d="M249 7012L316.55 7126.75L181.45 7126.75L249 7012Z" fill="#D9D9D9" fill-opacity="0.2"/>
<path d="M275 7028L342.55 7142.75L207.45 7142.75L275 7028Z" fill="#D9D9D9" fill-opacity="0.2"/>
<path d="M99.3301 7234.46L209.622 7361.23L39.0486 7391.31L99.3301 7234.46Z" fill="#D9D9D9" fill-opacity="0.2"/>
<path d="M132.33 7254.46L242.622 7381.23L72.0486 7411.31L132.33 7254.46Z" fill="#D9D9D9" fill-opacity="0.2"/>
<path d="M99.3301 7234.46L209.622 7361.23L39.0486 7391.31L99.3301 7234.46Z" fill="#D9D9D9" fill-opacity="0.2"/>
<path d="M132.33 7254.46L242.622 7381.23L72.0486 7411.31L132.33 7254.46Z" fill="#D9D9D9" fill-opacity="0.2"/>
<path d="M1326 7254L1393.55 7368.75L1258.45 7368.75L1326 7254Z" fill="#D9D9D9" fill-opacity="0.2"/>
<path d="M1384.5 7270L1480.2 7426.75L1288.8 7426.75L1384.5 7270Z" fill="#D9D9D9" fill-opacity="0.2"/>
<path d="M1428.5 7280L1524.2 7436.75L1332.8 7436.75L1428.5 7280Z" fill="#D9D9D9" fill-opacity="0.2"/>
<path d="M1274.5 6946L1370.2 7102.75L1178.8 7102.75L1274.5 6946Z" fill="#D9D9D9" fill-opacity="0.2"/>
<path d="M1318.5 6956L1414.2 7112.75L1222.8 7112.75L1318.5 6956Z" fill="#D9D9D9" fill-opacity="0.2"/>
<path d="M693.099 7036.17L713.538 7167.74L587.972 7117.89L693.099 7036.17Z" fill="#D9D9D9" fill-opacity="0.2"/>
<path d="M711.36 7060.63L731.799 7192.21L606.234 7142.36L711.36 7060.63Z" fill="#D9D9D9" fill-opacity="0.2"/>
<path d="M489 7648L574.736 7816L403.263 7816L489 7648Z" fill="#D9D9D9" fill-opacity="0.2"/>
<path d="M522 7671L607.736 7839L436.263 7839L522 7671Z" fill="#D9D9D9" fill-opacity="0.2"/>
<path d="M1063 8050L1148.74 8218L977.263 8218L1063 8050Z" fill="#D9D9D9" fill-opacity="0.2"/>
<path d="M1089 8070L1174.74 8238L1003.26 8238L1089 8070Z" fill="#D9D9D9" fill-opacity="0.2"/>
<path d="M1332.45 8347.7L1387.71 8528.04L1218.84 8498.26L1332.45 8347.7Z" fill="#D9D9D9" fill-opacity="0.2"/>
<path d="M1358.45 8361.7L1413.71 8542.04L1244.84 8512.26L1358.45 8361.7Z" fill="#D9D9D9" fill-opacity="0.2"/>
<path d="M483.694 8464.75L621.719 8593.3L460.587 8651.95L483.694 8464.75Z" fill="#D9D9D9" fill-opacity="0.2"/>
<path d="M515.694 8478.75L653.719 8607.3L492.587 8665.95L515.694 8478.75Z" fill="#D9D9D9" fill-opacity="0.2"/>
<path d="M1350.84 7693.61L1453.56 7778.34L1326.61 7824.55L1350.84 7693.61Z" fill="#D9D9D9" fill-opacity="0.2"/>
<path d="M1376.84 7709.61L1479.56 7794.34L1352.61 7840.55L1376.84 7709.61Z" fill="#D9D9D9" fill-opacity="0.2"/>
<path d="M653 8174L720.55 8288.75L585.45 8288.75L653 8174Z" fill="#D9D9D9" fill-opacity="0.2"/>
<path d="M683 8193L750.55 8307.75L615.45 8307.75L683 8193Z" fill="#D9D9D9" fill-opacity="0.2"/>
<path d="M251.164 8273.61L275.394 8404.55L148.441 8358.34L251.164 8273.61Z" fill="#D9D9D9" fill-opacity="0.2"/>
<path d="M265.164 8285.61L289.394 8416.55L162.441 8370.34L265.164 8285.61Z" fill="#D9D9D9" fill-opacity="0.2"/>
<path d="M242 8614L309.55 8728.75L174.45 8728.75L242 8614Z" fill="#D9D9D9" fill-opacity="0.2"/>
<path d="M260 8630L327.55 8744.75L192.45 8744.75L260 8630Z" fill="#D9D9D9" fill-opacity="0.2"/>
<path d="M200 7903L267.55 8017.75L132.45 8017.75L200 7903Z" fill="#D9D9D9" fill-opacity="0.2"/>
<path d="M221 7917L288.55 8031.75L153.45 8031.75L221 7917Z" fill="#D9D9D9" fill-opacity="0.2"/>
<path d="M249 7463L316.55 7577.75L181.45 7577.75L249 7463Z" fill="#D9D9D9" fill-opacity="0.2"/>
<path d="M275 7479L342.55 7593.75L207.45 7593.75L275 7479Z" fill="#D9D9D9" fill-opacity="0.2"/>
<path d="M726 7311L793.55 7425.75L658.45 7425.75L726 7311Z" fill="#D9D9D9" fill-opacity="0.2"/>
<path d="M752 7327L819.55 7441.75L684.45 7441.75L752 7327Z" fill="#D9D9D9" fill-opacity="0.2"/>
<path d="M930 7648L997.55 7762.75L862.45 7762.75L930 7648Z" fill="#D9D9D9" fill-opacity="0.2"/>
<path d="M956 7664L1023.55 7778.75L888.45 7778.75L956 7664Z" fill="#D9D9D9" fill-opacity="0.2"/>
<path d="M844 6767L911.55 6881.75L776.45 6881.75L844 6767Z" fill="#D9D9D9" fill-opacity="0.2"/>
<path d="M870 6783L937.55 6897.75L802.45 6897.75L870 6783Z" fill="#D9D9D9" fill-opacity="0.2"/>
<path d="M444.665 6598.27L472.034 6728.59L344.008 6685.44L444.665 6598.27Z" fill="#D9D9D9" fill-opacity="0.2"/>
<path d="M464.194 6621.74L491.563 6752.05L363.537 6708.91L464.194 6621.74Z" fill="#D9D9D9" fill-opacity="0.2"/>
<path d="M1188 7531L1255.55 7645.75L1120.45 7645.75L1188 7531Z" fill="#D9D9D9" fill-opacity="0.2"/>
<path d="M1214 7547L1281.55 7661.75L1146.45 7661.75L1214 7547Z" fill="#D9D9D9" fill-opacity="0.2"/>
<circle cx="158.5" cy="6270.5" r="121.5" fill="#D9D9D9" fill-opacity="0.2"/>
<circle cx="745.5" cy="5558.5" r="121.5" fill="#D9D9D9" fill-opacity="0.2"/>
<circle cx="1551.5" cy="6045.5" r="121.5" fill="#D9D9D9" fill-opacity="0.2"/>
<circle cx="280" cy="5765" r="180" fill="#D9D9D9" fill-opacity="0.2"/>
<circle cx="1223" cy="5707" r="180" fill="#D9D9D9" fill-opacity="0.2"/>
<circle cx="1004" cy="6236" r="180" fill="#D9D9D9" fill-opacity="0.2"/>
<circle cx="659.5" cy="6521.5" r="106.5" fill="#D9D9D9" fill-opacity="0.2"/>
</svg>
