<svg width="1266" height="193" viewBox="0 0 1266 193" fill="none" xmlns="http://www.w3.org/2000/svg">
<circle cx="84.5" cy="108.5" r="84.5" fill="#AF6D6D" fill-opacity="0.4"/>
<circle cx="629.5" cy="86.5" r="84.5" fill="#AF6D6D" fill-opacity="0.4"/>
<path d="M961 33.854C961 80.5221 923.168 118.354 876.5 118.354C829.832 118.354 792 80.5221 792 33.854C792 -12.8141 829.832 2.354 876.5 2.35413C923.168 2.35413 961 -12.8141 961 33.854Z" fill="#AF6D6D" fill-opacity="0.4"/>
<circle cx="1181.5" cy="86.5" r="84.5" fill="#AF6D6D" fill-opacity="0.4"/>
<path d="M409 35.4996C409 82.1676 371.168 120 324.5 120C277.832 120 240 82.1676 240 35.4996C240 -11.1685 277.832 1.99991 324.5 1.99991C371.168 1.99991 409 -11.1685 409 35.4996Z" fill="#AF6D6D" fill-opacity="0.4"/>
</svg>
