<svg width="28" height="28" viewBox="0 0 28 28" fill="none" xmlns="http://www.w3.org/2000/svg">
<path d="M2.00835 25.9919C2.08961 26.0732 2.18612 26.1378 2.29234 26.1818C2.39856 26.2258 2.51242 26.2485 2.62741 26.2485C2.7424 26.2485 2.85626 26.2258 2.96249 26.1818C3.06871 26.1378 3.16521 26.0732 3.24647 25.9919L14.0002 15.2381L24.7584 25.9919C24.9225 26.156 25.1452 26.2483 25.3774 26.2483C25.6096 26.2483 25.8323 26.156 25.9965 25.9919C26.1607 25.8277 26.2529 25.605 26.2529 25.3728C26.2529 25.1406 26.1607 24.9179 25.9965 24.7537L15.2384 14L25.9921 3.24186C26.1563 3.07768 26.2485 2.85499 26.2485 2.6228C26.2485 2.39061 26.1563 2.16792 25.9921 2.00374C25.8279 1.83955 25.6052 1.74731 25.373 1.74731C25.1408 1.74731 24.9182 1.83955 24.754 2.00374L14.0002 12.7619L3.2421 2.00811C3.07471 1.86477 2.85939 1.78986 2.63918 1.79837C2.41896 1.80687 2.21006 1.89816 2.05423 2.054C1.8984 2.20983 1.80711 2.41873 1.7986 2.63894C1.7901 2.85916 1.865 3.07447 2.00835 3.24186L12.7621 14L2.00835 24.7581C1.84538 24.9221 1.75391 25.1438 1.75391 25.375C1.75391 25.6061 1.84538 25.8279 2.00835 25.9919Z" fill="#6A6868"/>
</svg>
