<svg width="30" height="24" viewBox="0 0 30 24" fill="none" xmlns="http://www.w3.org/2000/svg">
<path d="M1.09091 24C0.488417 24 0 23.5116 0 22.9091V22.9091C0 22.3066 0.488417 21.8182 1.09091 21.8182H28.9091C29.5116 21.8182 30 22.3066 30 22.9091V22.9091C30 23.5116 29.5116 24 28.9091 24H1.09091ZM0 12C0 11.3975 0.488417 10.9091 1.09091 10.9091H28.9091C29.5116 10.9091 30 11.3975 30 12V12C30 12.6025 29.5116 13.0909 28.9091 13.0909H1.09091C0.488417 13.0909 0 12.6025 0 12V12ZM0 1.09091C0 0.488417 0.488417 5.75557e-07 1.09091 5.75557e-07H28.9091C29.5116 5.75557e-07 30 0.488417 30 1.09091V1.09091C30 1.6934 29.5116 2.18182 28.9091 2.18182H1.09091C0.488417 2.18182 0 1.6934 0 1.09091V1.09091Z" fill="#6A6868"/>
</svg>
