<svg width="250" height="182" viewBox="0 0 250 182" fill="none" xmlns="http://www.w3.org/2000/svg">
<g clip-path="url(#clip0_130_190)">
<path d="M205.202 108.964C205.367 108.91 205.536 108.871 205.707 108.846L212.534 93.7654L210.45 90.3685L214.754 86.2788L220.165 93.4775L209.145 110.914C209.416 111.574 209.496 112.307 209.374 113.017C209.253 113.728 208.935 114.381 208.464 114.89C207.992 115.399 207.389 115.74 206.735 115.867C206.081 115.995 205.407 115.903 204.803 115.604C204.198 115.304 203.691 114.812 203.35 114.192C203.009 113.573 202.849 112.854 202.893 112.134C202.936 111.413 203.18 110.724 203.593 110.157C204.005 109.591 204.567 109.175 205.202 108.964V108.964Z" fill="#A0616A"/>
<path d="M216.856 88.3625C216.763 88.469 216.656 88.5605 216.539 88.634L209.554 93.0361C209.386 93.1419 209.2 93.2087 209.007 93.2323C208.814 93.2559 208.619 93.2357 208.434 93.173C208.248 93.1103 208.077 93.0065 207.931 92.8681C207.784 92.7298 207.666 92.5599 207.583 92.3692L204.186 84.5664C204.041 84.238 204.01 83.8641 204.098 83.5128C204.186 83.1616 204.387 82.8565 204.665 82.6531L208.995 79.4509C209.265 79.2511 209.591 79.1602 209.916 79.1939C210.242 79.2275 210.546 79.3836 210.777 79.6352L216.829 86.2379C217.086 86.5189 217.233 86.8978 217.238 87.2943C217.243 87.6909 217.106 88.074 216.856 88.3625H216.856Z" fill="#CCCCCC"/>
<path d="M226.663 174.777L222.975 175.868L217.35 160.923L222.793 159.312L226.663 174.777Z" fill="#A0616A"/>
<path d="M220.054 175.502L227.166 173.398L228.385 178.267L216.795 181.695C216.635 181.056 216.592 180.388 216.669 179.731C216.746 179.074 216.942 178.44 217.245 177.865C217.547 177.29 217.951 176.785 218.433 176.38C218.915 175.974 219.466 175.676 220.054 175.502Z" fill="#2F2E41"/>
<path d="M195.137 177.837L191.315 177.836L189.497 161.81L195.137 161.81L195.137 177.837Z" fill="#A0616A"/>
<path d="M188.585 176.649H195.955V181.695H183.944C183.944 181.032 184.064 180.376 184.297 179.764C184.53 179.152 184.872 178.596 185.303 178.127C185.734 177.659 186.246 177.287 186.809 177.033C187.372 176.78 187.975 176.649 188.585 176.649Z" fill="#2F2E41"/>
<path d="M199.163 74.1309C203.392 74.1309 206.82 70.404 206.82 65.8066C206.82 61.2093 203.392 57.4824 199.163 57.4824C194.935 57.4824 191.507 61.2093 191.507 65.8066C191.507 70.404 194.935 74.1309 199.163 74.1309Z" fill="#A0616A"/>
<path d="M194.903 166.41H189.68C189.323 166.409 188.979 166.261 188.719 165.995C188.459 165.729 188.301 165.366 188.278 164.979C186.722 138.082 187.632 118.788 191.143 104.26C191.159 104.197 191.178 104.134 191.2 104.073L191.48 103.313C191.583 103.029 191.763 102.786 191.995 102.615C192.227 102.444 192.502 102.353 192.782 102.354H203.522C203.725 102.354 203.925 102.401 204.109 102.493C204.293 102.585 204.456 102.719 204.587 102.887L206.046 104.737C206.075 104.773 206.101 104.81 206.127 104.849C212.705 114.822 218.6 134.319 225.427 160.526C225.528 160.907 225.488 161.315 225.316 161.665C225.144 162.014 224.853 162.276 224.505 162.395L218.892 164.348C218.57 164.459 218.222 164.439 217.912 164.294C217.601 164.149 217.349 163.888 217.201 163.558L202.636 130.714C202.534 130.485 202.367 130.297 202.159 130.179C201.952 130.06 201.714 130.018 201.483 130.058C201.251 130.098 201.038 130.217 200.874 130.399C200.71 130.581 200.604 130.816 200.572 131.069L196.293 165.091C196.246 165.456 196.079 165.79 195.824 166.032C195.569 166.275 195.241 166.409 194.903 166.41Z" fill="#2F2E41"/>
<path d="M205.457 104.872C205.443 104.872 205.428 104.872 205.413 104.872L192.368 104.424C192.032 104.414 191.711 104.273 191.464 104.027C191.216 103.781 191.058 103.446 191.018 103.084C189.364 88.5301 193.9 84.6312 195.927 83.6307C196.096 83.5476 196.243 83.4183 196.353 83.2554C196.463 83.0925 196.532 82.9015 196.554 82.701L196.729 81.1755C196.759 80.9061 196.855 80.6503 197.006 80.4347C200.184 75.9593 204.523 74.5262 206.827 74.0704C207.014 74.0339 207.206 74.0391 207.391 74.0856C207.576 74.1321 207.75 74.219 207.903 74.341C208.056 74.4631 208.185 74.6177 208.281 74.7954C208.378 74.9732 208.44 75.1704 208.464 75.3751L208.727 77.5655C208.754 77.7744 208.83 77.9721 208.949 78.1388C215.576 87.558 208.193 101.466 206.646 104.158C206.52 104.376 206.344 104.557 206.136 104.682C205.929 104.807 205.695 104.872 205.457 104.872Z" fill="#CCCCCC"/>
<path d="M214.611 66.7434C212.903 64.1287 210.855 61.7974 208.53 59.8226C206.598 58.1817 204.447 56.7798 202.074 56.1093C199.701 55.4387 197.081 55.5528 194.916 56.8038C192.751 58.0547 190.512 60.5402 190.499 63.2058C190.494 64.0621 190.695 65.2206 191.47 65.0725L191.695 65.1048C193.566 64.6939 195.437 64.283 197.308 63.8722C198.105 66.879 198.902 69.8859 199.699 72.8928C199.867 73.5265 200.092 74.2352 200.646 74.5054C201.167 74.7599 201.769 74.5201 202.297 74.2808C202.383 74.2414 203.128 72.423 203.128 72.423C203.147 72.3662 203.179 72.3158 203.222 72.2771C203.265 72.2383 203.316 72.2127 203.371 72.2027C203.425 72.1927 203.481 72.1988 203.533 72.2204C203.585 72.2419 203.631 72.2781 203.665 72.3252L204.108 72.9267C204.193 73.0416 204.309 73.1235 204.441 73.1599C204.572 73.1964 204.71 73.1854 204.835 73.1287C207.887 71.7438 210.938 70.3589 213.99 68.9741C214.411 68.7827 214.883 68.5327 215.005 68.054C215.122 67.5953 214.864 67.1316 214.611 66.7434Z" fill="#2F2E41"/>
<path d="M249.688 182H155.855C155.772 182 155.693 181.964 155.634 181.901C155.576 181.837 155.543 181.751 155.543 181.661C155.543 181.571 155.576 181.485 155.634 181.422C155.693 181.358 155.772 181.322 155.855 181.322H249.688C249.771 181.322 249.85 181.358 249.909 181.422C249.967 181.485 250 181.571 250 181.661C250 181.751 249.967 181.837 249.909 181.901C249.85 181.964 249.771 182 249.688 182Z" fill="#3F3D56"/>
<path d="M198.818 129.184C198.606 129.183 198.399 129.109 198.229 128.972L196.81 127.851C196.692 127.758 196.55 127.708 196.404 127.708C196.259 127.708 196.116 127.758 195.999 127.851L194.58 128.972C194.409 129.107 194.202 129.18 193.991 129.18C193.779 129.18 193.573 129.107 193.402 128.972C193.231 128.837 193.104 128.647 193.038 128.428C192.973 128.209 192.973 127.973 193.038 127.755L193.58 125.941C193.626 125.791 193.626 125.628 193.581 125.477C193.536 125.327 193.448 125.195 193.329 125.102L191.91 123.981C191.739 123.846 191.612 123.656 191.547 123.437C191.481 123.218 191.481 122.983 191.547 122.764C191.612 122.545 191.739 122.354 191.911 122.219C192.082 122.084 192.288 122.011 192.499 122.011H194.253C194.399 122.012 194.541 121.962 194.659 121.868C194.777 121.775 194.865 121.644 194.91 121.493L195.452 119.679C195.517 119.461 195.644 119.27 195.815 119.135C195.987 119 196.193 118.927 196.404 118.927C196.616 118.927 196.822 119 196.993 119.135C197.164 119.27 197.292 119.461 197.357 119.679L197.899 121.493C197.944 121.644 198.032 121.775 198.149 121.868C198.267 121.962 198.409 122.012 198.555 122.011H200.309C200.521 122.011 200.727 122.084 200.898 122.219C201.069 122.354 201.197 122.545 201.262 122.764C201.327 122.983 201.327 123.218 201.262 123.437C201.197 123.656 201.069 123.846 200.898 123.981L199.479 125.102C199.361 125.195 199.273 125.327 199.228 125.477C199.183 125.628 199.183 125.79 199.228 125.941L199.77 127.755C199.838 127.973 199.839 128.21 199.774 128.429C199.708 128.648 199.579 128.839 199.406 128.972C199.236 129.109 199.03 129.183 198.818 129.184Z" fill="#D14C4C"/>
<path d="M204.241 125.559C204.641 125.253 204.976 124.855 205.22 124.394C205.464 123.933 205.613 123.419 205.654 122.889C205.696 122.358 205.63 121.824 205.462 121.325C205.293 120.825 205.026 120.371 204.679 119.996L207.102 88.1812L199.887 89.2602L199.75 120.171C199.209 120.847 198.914 121.715 198.923 122.611C198.931 123.508 199.241 124.369 199.794 125.033C200.348 125.697 201.106 126.118 201.926 126.214C202.745 126.311 203.569 126.078 204.241 125.559Z" fill="#A0616A"/>
<path d="M207.574 92.762C207.439 92.762 207.304 92.7408 207.175 92.6991L199.429 90.2224C199.243 90.1629 199.07 90.062 198.922 89.9262C198.773 89.7904 198.652 89.6225 198.566 89.4333C198.481 89.244 198.432 89.0374 198.423 88.8267C198.415 88.6159 198.447 88.4055 198.517 88.2087L201.383 80.1581C201.503 79.818 201.731 79.5361 202.026 79.3636C202.32 79.1912 202.663 79.1398 202.989 79.2188L208.107 80.4281C208.426 80.5038 208.711 80.6983 208.913 80.978C209.114 81.2578 209.22 81.6053 209.211 81.9606L208.973 91.2782C208.963 91.6747 208.811 92.0512 208.55 92.3282C208.289 92.6051 207.939 92.7607 207.574 92.762H207.574Z" fill="#CCCCCC"/>
<path d="M134.671 132.518H2.18217C1.60362 132.517 1.04896 132.267 0.63986 131.822C0.230764 131.377 0.00064936 130.774 0 130.145V87.1024C0.00064936 86.4734 0.230764 85.8704 0.63986 85.4256C1.04896 84.9809 1.60362 84.7307 2.18217 84.73H134.671C135.25 84.7307 135.805 84.9809 136.214 85.4256C136.623 85.8704 136.853 86.4734 136.853 87.1024V130.145C136.853 130.774 136.623 131.377 136.214 131.822C135.805 132.267 135.25 132.517 134.671 132.518ZM2.18217 85.4078C1.76893 85.4083 1.37275 85.587 1.08054 85.9047C0.788333 86.2224 0.623957 86.6531 0.623478 87.1024V130.145C0.623957 130.595 0.788333 131.025 1.08054 131.343C1.37275 131.661 1.76893 131.839 2.18217 131.84H134.671C135.085 131.839 135.481 131.661 135.773 131.343C136.065 131.025 136.23 130.595 136.23 130.145V87.1024C136.23 86.6531 136.065 86.2224 135.773 85.9047C135.481 85.587 135.085 85.4083 134.671 85.4078H2.18217Z" fill="#3F3D56"/>
<path d="M60.158 150.642C59.8983 150.64 59.6456 150.55 59.4366 150.382L57.6982 149.009C57.554 148.894 57.38 148.833 57.2014 148.833C57.0228 148.833 56.8488 148.894 56.7046 149.009L54.9662 150.382C54.7566 150.547 54.5041 150.637 54.2449 150.637C53.9858 150.637 53.7333 150.548 53.5236 150.382C53.314 150.216 53.1579 149.983 53.0778 149.715C52.9977 149.447 52.9976 149.158 53.0777 148.89L53.7417 146.669C53.7972 146.484 53.7974 146.285 53.7422 146.1C53.6871 145.916 53.5794 145.755 53.4347 145.641L51.6963 144.268C51.4866 144.102 51.3306 143.869 51.2505 143.601C51.1704 143.333 51.1704 143.044 51.2505 142.776C51.3306 142.508 51.4866 142.275 51.6963 142.109C51.9059 141.944 52.1584 141.854 52.4176 141.854H54.5664C54.745 141.855 54.919 141.793 55.0635 141.679C55.208 141.565 55.3154 141.404 55.3703 141.219L56.0342 138.998C56.1143 138.73 56.2703 138.496 56.48 138.331C56.6897 138.165 56.9422 138.076 57.2014 138.076C57.4606 138.076 57.7131 138.165 57.9228 138.331C58.1325 138.496 58.2885 138.73 58.3686 138.998L59.0325 141.219C59.0874 141.404 59.1948 141.565 59.3393 141.679C59.4838 141.793 59.6578 141.855 59.8364 141.854H61.9852C62.2444 141.854 62.4968 141.944 62.7065 142.109C62.9161 142.275 63.0722 142.508 63.1523 142.776C63.2324 143.044 63.2324 143.333 63.1523 143.601C63.0722 143.869 62.9161 144.102 62.7065 144.268L60.9681 145.641C60.8234 145.755 60.7157 145.916 60.6606 146.1C60.6054 146.285 60.6056 146.484 60.6611 146.669L61.3251 148.89C61.4081 149.158 61.4096 149.448 61.3293 149.716C61.2489 149.985 61.0911 150.218 60.8792 150.382C60.6703 150.549 60.4177 150.64 60.158 150.642Z" fill="#D14C4C"/>
<path d="M77.7739 150.642C77.5141 150.64 77.2615 150.55 77.0525 150.382L75.3141 149.009C75.1699 148.894 74.9959 148.833 74.8173 148.833C74.6387 148.833 74.4647 148.894 74.3205 149.009L72.5821 150.382C72.3724 150.547 72.1199 150.637 71.8608 150.637C71.6017 150.637 71.3492 150.548 71.1395 150.382C70.9298 150.216 70.7738 149.983 70.6937 149.715C70.6136 149.447 70.6135 149.158 70.6936 148.89L71.3576 146.669C71.4131 146.484 71.4133 146.285 71.3581 146.1C71.3029 145.916 71.1953 145.755 71.0506 145.641L69.3122 144.268C69.1025 144.102 68.9465 143.869 68.8664 143.601C68.7864 143.333 68.7864 143.044 68.8665 142.776C68.9466 142.508 69.1026 142.275 69.3123 142.109C69.5219 141.944 69.7744 141.854 70.0335 141.854H72.1823C72.3608 141.855 72.5349 141.793 72.6794 141.679C72.8239 141.565 72.9313 141.404 72.9862 141.219L73.6502 138.998C73.7302 138.73 73.8863 138.496 74.096 138.331C74.3056 138.165 74.5581 138.076 74.8173 138.076C75.0765 138.076 75.329 138.165 75.5387 138.331C75.7483 138.496 75.9044 138.73 75.9844 138.998L76.6484 141.219C76.7033 141.404 76.8107 141.565 76.9552 141.679C77.0997 141.793 77.2738 141.855 77.4524 141.854H79.6011C79.8602 141.854 80.1127 141.944 80.3224 142.109C80.532 142.275 80.6881 142.508 80.7682 142.776C80.8483 143.044 80.8483 143.333 80.7682 143.601C80.6881 143.869 80.5321 144.102 80.3225 144.268L78.5841 145.641C78.4394 145.755 78.3316 145.916 78.2764 146.1C78.2212 146.285 78.2214 146.484 78.2769 146.669L78.941 148.89C79.024 149.158 79.0254 149.448 78.9451 149.716C78.8648 149.985 78.707 150.218 78.4951 150.382C78.2861 150.549 78.0335 150.64 77.7739 150.642Z" fill="#D14C4C"/>
<path d="M95.3896 150.642C95.1299 150.64 94.8773 150.549 94.6683 150.382L92.9299 149.009C92.7855 148.895 92.6116 148.833 92.433 148.833C92.2545 148.833 92.0806 148.895 91.9362 149.009L90.1978 150.382C89.9882 150.547 89.7357 150.637 89.4765 150.637C89.2174 150.637 88.9649 150.548 88.7552 150.382C88.5456 150.216 88.3895 149.983 88.3094 149.715C88.2293 149.447 88.2293 149.158 88.3094 148.89L88.9733 146.669C89.0288 146.484 89.029 146.285 88.9738 146.1C88.9187 145.916 88.811 145.755 88.6663 145.641L86.9279 144.268C86.7183 144.102 86.5622 143.869 86.4822 143.601C86.4021 143.333 86.4021 143.044 86.4822 142.776C86.5623 142.508 86.7183 142.275 86.928 142.109C87.1376 141.944 87.3901 141.854 87.6493 141.854H89.798C89.9766 141.855 90.1506 141.793 90.2951 141.679C90.4396 141.565 90.547 141.404 90.6019 141.219L91.2659 138.998C91.346 138.73 91.502 138.496 91.7117 138.331C91.9214 138.165 92.1739 138.076 92.433 138.076C92.6922 138.076 92.9447 138.165 93.1544 138.331C93.3641 138.496 93.5201 138.73 93.6002 138.998L94.2642 141.219C94.3191 141.404 94.4265 141.565 94.571 141.679C94.7154 141.793 94.8895 141.855 95.0681 141.854H97.2168C97.476 141.854 97.7285 141.944 97.9381 142.109C98.1478 142.275 98.3038 142.508 98.3839 142.776C98.464 143.044 98.464 143.333 98.3839 143.601C98.3038 143.869 98.1478 144.102 97.9382 144.268L96.1998 145.641C96.0551 145.755 95.9474 145.916 95.8922 146.1C95.8371 146.285 95.8372 146.484 95.8928 146.669L96.5567 148.89C96.6397 149.158 96.6412 149.448 96.5609 149.716C96.4806 149.985 96.3228 150.218 96.1109 150.382C95.9019 150.549 95.6493 150.64 95.3896 150.642Z" fill="#D14C4C"/>
<path d="M113.006 150.642C112.746 150.64 112.493 150.549 112.284 150.382L110.546 149.009C110.402 148.894 110.228 148.833 110.049 148.833C109.871 148.833 109.697 148.894 109.552 149.009L107.814 150.382C107.604 150.547 107.352 150.637 107.093 150.637C106.833 150.637 106.581 150.548 106.371 150.382C106.162 150.216 106.006 149.983 105.925 149.715C105.845 149.447 105.845 149.158 105.925 148.89L106.589 146.669C106.645 146.484 106.645 146.285 106.59 146.1C106.535 145.916 106.427 145.755 106.282 145.641L104.544 144.268C104.334 144.102 104.178 143.869 104.098 143.601C104.018 143.333 104.018 143.044 104.098 142.776C104.178 142.508 104.334 142.275 104.544 142.109C104.754 141.944 105.006 141.854 105.265 141.854H107.414C107.593 141.855 107.767 141.793 107.911 141.679C108.056 141.565 108.163 141.404 108.218 141.219L108.882 138.998C108.962 138.73 109.118 138.496 109.328 138.331C109.537 138.165 109.79 138.076 110.049 138.076C110.308 138.076 110.561 138.165 110.77 138.331C110.98 138.496 111.136 138.73 111.216 138.998L111.88 141.219C111.935 141.404 112.042 141.565 112.187 141.679C112.331 141.793 112.505 141.855 112.684 141.854H114.833C115.092 141.854 115.344 141.944 115.554 142.109C115.764 142.275 115.92 142.508 116 142.776C116.08 143.044 116.08 143.333 116 143.601C115.92 143.869 115.764 144.102 115.554 144.268L113.816 145.641C113.671 145.755 113.563 145.916 113.508 146.1C113.453 146.285 113.453 146.484 113.509 146.669L114.173 148.89C114.256 149.158 114.257 149.448 114.177 149.716C114.097 149.985 113.939 150.218 113.727 150.382C113.518 150.549 113.265 150.64 113.006 150.642Z" fill="#D14C4C"/>
<path d="M124.708 150.773C124.423 150.772 124.146 150.672 123.916 150.488C123.683 150.309 123.51 150.052 123.422 149.757C123.334 149.462 123.335 149.144 123.426 148.85L124.091 146.628C124.138 146.47 124.138 146.299 124.091 146.141C124.044 145.983 123.951 145.845 123.827 145.747L122.089 144.374C121.859 144.192 121.687 143.936 121.599 143.641C121.511 143.347 121.511 143.03 121.599 142.736C121.687 142.441 121.859 142.185 122.089 142.003C122.319 141.821 122.597 141.723 122.881 141.723H125.03C125.183 141.723 125.332 141.671 125.456 141.573C125.58 141.475 125.672 141.337 125.719 141.179L126.383 138.957C126.471 138.663 126.642 138.406 126.873 138.224C127.103 138.042 127.38 137.944 127.665 137.944C127.95 137.944 128.227 138.042 128.457 138.224C128.688 138.406 128.859 138.663 128.947 138.957L129.611 141.179C129.658 141.337 129.75 141.475 129.874 141.573C129.998 141.671 130.147 141.723 130.3 141.723H132.449C132.733 141.723 133.011 141.821 133.241 142.003C133.471 142.185 133.643 142.441 133.731 142.736C133.819 143.03 133.819 143.347 133.731 143.641C133.643 143.936 133.471 144.192 133.241 144.374L131.503 145.747C131.379 145.845 131.286 145.983 131.239 146.141C131.192 146.299 131.192 146.47 131.24 146.628L131.904 148.85C131.992 149.144 131.992 149.461 131.904 149.755C131.816 150.05 131.644 150.306 131.414 150.488C131.184 150.67 130.906 150.768 130.622 150.768C130.337 150.768 130.059 150.67 129.829 150.488L128.091 149.115C127.967 149.017 127.818 148.964 127.665 148.964C127.512 148.964 127.363 149.017 127.239 149.115L125.501 150.488C125.271 150.672 124.994 150.772 124.708 150.773ZM127.665 148.286C127.95 148.286 128.227 148.384 128.457 148.567L130.196 149.94C130.319 150.037 130.468 150.09 130.621 150.09C130.774 150.09 130.924 150.038 131.047 149.94C131.171 149.842 131.263 149.704 131.311 149.546C131.358 149.388 131.358 149.217 131.311 149.059L130.647 146.837C130.558 146.543 130.558 146.226 130.646 145.931C130.734 145.637 130.906 145.38 131.136 145.199L132.875 143.826C132.998 143.728 133.091 143.59 133.138 143.432C133.185 143.274 133.185 143.103 133.138 142.945C133.091 142.787 132.998 142.649 132.875 142.551C132.751 142.453 132.602 142.401 132.449 142.401H130.3C130.015 142.401 129.738 142.304 129.507 142.122C129.277 141.94 129.106 141.683 129.018 141.388L128.354 139.166C128.307 139.008 128.215 138.87 128.091 138.773C127.967 138.675 127.818 138.622 127.665 138.622C127.512 138.622 127.363 138.675 127.239 138.773C127.115 138.87 127.023 139.008 126.976 139.166L126.312 141.388C126.224 141.683 126.053 141.94 125.823 142.122C125.592 142.304 125.315 142.401 125.03 142.401H122.881C122.728 142.401 122.579 142.453 122.455 142.551C122.332 142.649 122.239 142.787 122.192 142.945C122.145 143.103 122.145 143.274 122.192 143.432C122.239 143.59 122.332 143.728 122.455 143.826L124.194 145.199C124.424 145.38 124.596 145.637 124.684 145.931C124.772 146.226 124.772 146.543 124.683 146.837L124.019 149.059C123.972 149.217 123.972 149.388 124.019 149.546C124.067 149.704 124.159 149.842 124.283 149.94C124.406 150.037 124.555 150.09 124.708 150.09C124.861 150.09 125.01 150.037 125.134 149.94L126.873 148.567C127.103 148.384 127.38 148.286 127.665 148.286Z" fill="#3F3D56"/>
<path d="M17.1457 94.8975C16.6083 94.8975 16.0929 95.1296 15.7129 95.5427C15.3329 95.9558 15.1194 96.5162 15.1194 97.1004C15.1194 97.6847 15.3329 98.245 15.7129 98.6582C16.0929 99.0713 16.6083 99.3034 17.1457 99.3034H119.708C120.245 99.3034 120.761 99.0713 121.141 98.6582C121.521 98.245 121.734 97.6847 121.734 97.1004C121.734 96.5162 121.521 95.9558 121.141 95.5427C120.761 95.1296 120.245 94.8975 119.708 94.8975H17.1457Z" fill="#CCCCCC"/>
<path d="M17.1457 106.421C16.6083 106.421 16.0929 106.653 15.7129 107.066C15.3329 107.479 15.1194 108.04 15.1194 108.624C15.1194 109.208 15.3329 109.768 15.7129 110.182C16.0929 110.595 16.6083 110.827 17.1457 110.827H119.708C120.245 110.827 120.761 110.595 121.141 110.182C121.521 109.768 121.734 109.208 121.734 108.624C121.734 108.04 121.521 107.479 121.141 107.066C120.761 106.653 120.245 106.421 119.708 106.421H17.1457Z" fill="#CCCCCC"/>
<path d="M17.1457 117.944C16.6083 117.944 16.0929 118.176 15.7129 118.59C15.3329 119.003 15.1194 119.563 15.1194 120.147C15.1194 120.732 15.3329 121.292 15.7129 121.705C16.0929 122.118 16.6083 122.35 17.1457 122.35H119.708C120.245 122.35 120.761 122.118 121.141 121.705C121.521 121.292 121.734 120.732 121.734 120.147C121.734 119.563 121.521 119.003 121.141 118.59C120.761 118.176 120.245 117.944 119.708 117.944H17.1457Z" fill="#CCCCCC"/>
<path d="M17.1457 94.8975C16.6083 94.8975 16.0929 95.1296 15.7129 95.5427C15.3329 95.9558 15.1194 96.5162 15.1194 97.1004C15.1194 97.6847 15.3329 98.245 15.7129 98.6582C16.0929 99.0713 16.6083 99.3034 17.1457 99.3034H119.708C120.245 99.3034 120.761 99.0713 121.141 98.6582C121.521 98.245 121.734 97.6847 121.734 97.1004C121.734 96.5162 121.521 95.9558 121.141 95.5427C120.761 95.1296 120.245 94.8975 119.708 94.8975H17.1457Z" fill="#CCCCCC"/>
<path d="M17.1457 106.421C16.6083 106.421 16.0929 106.653 15.7129 107.066C15.3329 107.479 15.1194 108.04 15.1194 108.624C15.1194 109.208 15.3329 109.768 15.7129 110.182C16.0929 110.595 16.6083 110.827 17.1457 110.827H119.708C120.245 110.827 120.761 110.595 121.141 110.182C121.521 109.768 121.734 109.208 121.734 108.624C121.734 108.04 121.521 107.479 121.141 107.066C120.761 106.653 120.245 106.421 119.708 106.421H17.1457Z" fill="#CCCCCC"/>
<path d="M17.1457 117.944C16.6083 117.944 16.0929 118.176 15.7129 118.59C15.3329 119.003 15.1194 119.563 15.1194 120.147C15.1194 120.732 15.3329 121.292 15.7129 121.705C16.0929 122.118 16.6083 122.35 17.1457 122.35H119.708C120.245 122.35 120.761 122.118 121.141 121.705C121.521 121.292 121.734 120.732 121.734 120.147C121.734 119.563 121.521 119.003 121.141 118.59C120.761 118.176 120.245 117.944 119.708 117.944H17.1457Z" fill="#CCCCCC"/>
<path d="M134.671 47.7877H2.18217C1.60362 47.787 1.04896 47.5368 0.63986 47.0921C0.230764 46.6473 0.00064936 46.0443 0 45.4153V2.37244C0.00064936 1.74345 0.230764 1.14042 0.63986 0.695651C1.04896 0.250885 1.60362 0.000705978 2.18217 0H134.671C135.25 0.000705083 135.805 0.250885 136.214 0.695651C136.623 1.14042 136.853 1.74345 136.853 2.37244V45.4153C136.853 46.0443 136.623 46.6473 136.214 47.0921C135.805 47.5368 135.25 47.787 134.671 47.7877ZM2.18217 0.67784C1.76893 0.67836 1.37275 0.857063 1.08054 1.17475C0.788333 1.49244 0.623957 1.92316 0.623478 2.37244V45.4153C0.623957 45.8645 0.788333 46.2953 1.08054 46.613C1.37275 46.9306 1.76893 47.1094 2.18217 47.1099H134.671C135.085 47.1094 135.481 46.9307 135.773 46.613C136.065 46.2953 136.23 45.8646 136.23 45.4153V2.37244C136.23 1.92316 136.065 1.49243 135.773 1.17474C135.481 0.857056 135.085 0.678353 134.671 0.67784H2.18217Z" fill="#3F3D56"/>
<path d="M60.158 65.9116C59.8983 65.9105 59.6456 65.8195 59.4366 65.6519L57.6982 64.2788C57.554 64.1643 57.38 64.1026 57.2014 64.1026C57.0228 64.1026 56.8488 64.1643 56.7046 64.2788L54.9662 65.6519C54.7566 65.8175 54.5041 65.9067 54.2449 65.9067C53.9858 65.9067 53.7333 65.8176 53.5236 65.652C53.314 65.4864 53.1579 65.2529 53.0778 64.9849C52.9977 64.717 52.9976 64.4284 53.0777 64.1604L53.7417 61.9387C53.7972 61.7541 53.7974 61.5551 53.7422 61.3705C53.6871 61.1858 53.5794 61.0249 53.4347 60.911L51.6963 59.5379C51.4866 59.3723 51.3306 59.1388 51.2505 58.8709C51.1704 58.6029 51.1704 58.3143 51.2505 58.0463C51.3306 57.7783 51.4866 57.5448 51.6963 57.3792C51.9059 57.2136 52.1584 57.1244 52.4176 57.1244H54.5664C54.745 57.1248 54.919 57.0635 55.0635 56.9494C55.208 56.8352 55.3154 56.6742 55.3703 56.4895L56.0342 54.2677C56.1143 53.9997 56.2703 53.7662 56.48 53.6006C56.6897 53.4349 56.9422 53.3457 57.2014 53.3457C57.4606 53.3457 57.7131 53.4349 57.9228 53.6006C58.1325 53.7662 58.2885 53.9997 58.3686 54.2677L59.0325 56.4895C59.0874 56.6742 59.1948 56.8352 59.3393 56.9494C59.4838 57.0635 59.6578 57.1248 59.8364 57.1244H61.9852C62.2444 57.1244 62.4968 57.2136 62.7065 57.3792C62.9161 57.5448 63.0722 57.7784 63.1523 58.0463C63.2324 58.3143 63.2324 58.6029 63.1523 58.8709C63.0722 59.1388 62.9161 59.3723 62.7065 59.5379L60.9681 60.911C60.8234 61.0249 60.7157 61.1858 60.6606 61.3705C60.6054 61.5551 60.6056 61.7541 60.6611 61.9387L61.3251 64.1604C61.4081 64.4281 61.4096 64.7177 61.3293 64.9864C61.2489 65.255 61.0911 65.4884 60.8792 65.6519C60.6703 65.8195 60.4177 65.9105 60.158 65.9116Z" fill="#D14C4C"/>
<path d="M77.7739 65.9116C77.5141 65.9105 77.2615 65.8195 77.0525 65.6519L75.3141 64.2788C75.1699 64.1643 74.9959 64.1026 74.8173 64.1026C74.6387 64.1026 74.4647 64.1643 74.3205 64.2788L72.5821 65.6519C72.3724 65.8175 72.1199 65.9067 71.8608 65.9067C71.6017 65.9067 71.3492 65.8176 71.1395 65.652C70.9298 65.4864 70.7738 65.2529 70.6937 64.9849C70.6136 64.717 70.6135 64.4284 70.6936 64.1604L71.3576 61.9387C71.4131 61.7541 71.4133 61.5551 71.3581 61.3705C71.3029 61.1858 71.1953 61.0249 71.0506 60.911L69.3122 59.5379C69.1025 59.3723 68.9465 59.1388 68.8664 58.8708C68.7864 58.6029 68.7864 58.3142 68.8665 58.0463C68.9466 57.7783 69.1026 57.5448 69.3123 57.3792C69.5219 57.2136 69.7744 57.1244 70.0335 57.1244H72.1823C72.3608 57.1248 72.5349 57.0635 72.6794 56.9494C72.8239 56.8352 72.9313 56.6742 72.9862 56.4895L73.6502 54.2677C73.7302 53.9997 73.8863 53.7662 74.096 53.6005C74.3056 53.4349 74.5581 53.3457 74.8173 53.3457C75.0765 53.3457 75.329 53.4349 75.5387 53.6005C75.7483 53.7662 75.9044 53.9997 75.9844 54.2677L76.6484 56.4895C76.7033 56.6742 76.8107 56.8353 76.9552 56.9494C77.0997 57.0635 77.2738 57.1248 77.4524 57.1244H79.6011C79.8602 57.1244 80.1127 57.2136 80.3224 57.3792C80.532 57.5448 80.6881 57.7783 80.7682 58.0463C80.8483 58.3142 80.8483 58.6029 80.7682 58.8708C80.6881 59.1388 80.5321 59.3723 80.3225 59.5379L78.5841 60.911C78.4394 61.0249 78.3316 61.1857 78.2764 61.3704C78.2212 61.5551 78.2214 61.7541 78.2769 61.9387L78.941 64.1604C79.024 64.4281 79.0254 64.7177 78.9451 64.9864C78.8648 65.255 78.707 65.4884 78.4951 65.6519C78.2861 65.8195 78.0335 65.9104 77.7739 65.9116Z" fill="#D14C4C"/>
<path d="M95.3896 65.9116C95.1299 65.9105 94.8773 65.8195 94.6683 65.6519L92.9299 64.2788C92.7855 64.1646 92.6116 64.103 92.433 64.103C92.2545 64.103 92.0806 64.1646 91.9362 64.2788L90.1978 65.6519C89.9882 65.8175 89.7357 65.9067 89.4765 65.9067C89.2174 65.9067 88.9649 65.8176 88.7552 65.652C88.5456 65.4864 88.3895 65.2529 88.3094 64.9849C88.2293 64.717 88.2293 64.4284 88.3094 64.1604L88.9733 61.9387C89.0288 61.7541 89.029 61.5551 88.9738 61.3705C88.9187 61.1858 88.811 61.0249 88.6663 60.911L86.9279 59.5379C86.7183 59.3723 86.5622 59.1388 86.4822 58.8708C86.4021 58.6029 86.4021 58.3142 86.4822 58.0463C86.5623 57.7783 86.7183 57.5448 86.928 57.3792C87.1376 57.2136 87.3901 57.1244 87.6493 57.1244H89.798C89.9766 57.1248 90.1506 57.0635 90.2951 56.9494C90.4396 56.8352 90.547 56.6742 90.6019 56.4895L91.2659 54.2677C91.346 53.9997 91.502 53.7662 91.7117 53.6005C91.9214 53.4349 92.1739 53.3457 92.433 53.3457C92.6922 53.3457 92.9447 53.4349 93.1544 53.6005C93.3641 53.7662 93.5201 53.9997 93.6002 54.2677L94.2642 56.4895C94.3191 56.6742 94.4265 56.8352 94.571 56.9494C94.7154 57.0635 94.8895 57.1248 95.0681 57.1244H97.2168C97.476 57.1244 97.7285 57.2136 97.9381 57.3792C98.1478 57.5448 98.3038 57.7783 98.3839 58.0463C98.464 58.3142 98.464 58.6029 98.3839 58.8708C98.3038 59.1388 98.1478 59.3723 97.9382 59.5379L96.1998 60.911C96.0551 61.0249 95.9474 61.1858 95.8922 61.3705C95.8371 61.5551 95.8372 61.7541 95.8928 61.9387L96.5567 64.1604C96.6397 64.4281 96.6412 64.7177 96.5609 64.9864C96.4806 65.255 96.3228 65.4884 96.1109 65.6519C95.9019 65.8195 95.6493 65.9105 95.3896 65.9116Z" fill="#D14C4C"/>
<path d="M124.708 66.0432C124.423 66.042 124.146 65.9422 123.916 65.7582C123.683 65.5786 123.51 65.3222 123.422 65.027C123.334 64.7319 123.335 64.4137 123.426 64.1196L124.091 61.8979C124.138 61.7397 124.138 61.5692 124.091 61.411C124.044 61.2527 123.951 61.1149 123.827 61.0173L122.089 59.6441C121.859 59.4622 121.687 59.2057 121.599 58.9113C121.511 58.617 121.511 58.2999 121.599 58.0056C121.687 57.7112 121.859 57.4547 122.089 57.2728C122.319 57.0909 122.597 56.9929 122.881 56.993H125.03C125.183 56.9933 125.332 56.9407 125.456 56.8429C125.58 56.7451 125.672 56.607 125.719 56.4487L126.383 54.227C126.471 53.9326 126.642 53.6761 126.873 53.4942C127.103 53.3123 127.38 53.2144 127.665 53.2144C127.95 53.2144 128.227 53.3123 128.457 53.4942C128.688 53.6761 128.859 53.9326 128.947 54.227L129.611 56.4487C129.658 56.607 129.75 56.7451 129.874 56.8429C129.998 56.9407 130.147 56.9933 130.3 56.993H132.449C132.733 56.993 133.011 57.091 133.241 57.2729C133.471 57.4548 133.643 57.7113 133.731 58.0056C133.819 58.2999 133.819 58.617 133.731 58.9113C133.643 59.2057 133.471 59.4622 133.241 59.6441L131.503 61.0173C131.379 61.1148 131.286 61.2527 131.239 61.4109C131.192 61.5692 131.192 61.7397 131.24 61.8979L131.904 64.1196C131.992 64.4139 131.992 64.731 131.904 65.0253C131.816 65.3196 131.644 65.5761 131.414 65.758C131.184 65.94 130.906 66.0379 130.622 66.0379C130.337 66.0379 130.059 65.94 129.829 65.7581L128.091 64.385C127.967 64.2869 127.818 64.2341 127.665 64.2341C127.512 64.2341 127.363 64.2869 127.239 64.385L125.501 65.7581C125.271 65.9421 124.994 66.042 124.708 66.0432ZM127.665 63.5559C127.95 63.556 128.227 63.6542 128.457 63.8366L130.196 65.2096C130.319 65.3075 130.468 65.3602 130.621 65.3602C130.774 65.3602 130.924 65.3076 131.047 65.2098C131.171 65.112 131.263 64.9741 131.311 64.8159C131.358 64.6577 131.358 64.4873 131.311 64.3291L130.647 62.1074C130.558 61.8131 130.558 61.4958 130.646 61.2014C130.734 60.9069 130.906 60.6504 131.136 60.4689L132.875 59.0957C132.998 58.9979 133.091 58.86 133.138 58.7019C133.185 58.5437 133.185 58.3733 133.138 58.2151C133.091 58.0569 132.998 57.919 132.875 57.8212C132.751 57.7235 132.602 57.6708 132.449 57.6708H130.3C130.015 57.6714 129.738 57.5736 129.507 57.3917C129.277 57.2097 129.106 56.9528 129.018 56.6582L128.354 54.4365C128.307 54.2783 128.215 54.1404 128.091 54.0426C127.967 53.9449 127.818 53.8922 127.665 53.8922C127.512 53.8922 127.363 53.9449 127.239 54.0426C127.115 54.1404 127.023 54.2783 126.976 54.4365L126.312 56.6582C126.224 56.9528 126.053 57.2097 125.823 57.3917C125.592 57.5737 125.315 57.6714 125.03 57.6708H122.881C122.728 57.6708 122.579 57.7235 122.455 57.8212C122.332 57.919 122.239 58.0568 122.192 58.215C122.145 58.3732 122.145 58.5436 122.192 58.7018C122.239 58.86 122.332 58.9979 122.455 59.0957L124.194 60.4689C124.424 60.6504 124.596 60.9069 124.684 61.2014C124.772 61.4959 124.772 61.8131 124.683 62.1074L124.019 64.3291C123.972 64.4873 123.972 64.6577 124.019 64.8159C124.067 64.9741 124.159 65.1119 124.283 65.2097C124.406 65.3075 124.555 65.3601 124.708 65.3601C124.861 65.3601 125.01 65.3074 125.134 65.2096L126.873 63.8366C127.103 63.6542 127.38 63.556 127.665 63.5559Z" fill="#3F3D56"/>
<path d="M106.939 65.989C106.654 65.9877 106.377 65.8879 106.147 65.704C105.914 65.5244 105.741 65.268 105.653 64.9728C105.564 64.6776 105.566 64.3594 105.657 64.0653L106.321 61.8437C106.369 61.6855 106.369 61.515 106.322 61.3568C106.274 61.1985 106.182 61.0607 106.058 60.9631L104.32 59.5899C104.089 59.408 103.918 59.1515 103.83 58.8571C103.742 58.5628 103.742 58.2457 103.83 57.9514C103.918 57.657 104.089 57.4005 104.32 57.2186C104.55 57.0367 104.827 56.9387 105.112 56.9388H107.261C107.414 56.9391 107.563 56.8865 107.687 56.7887C107.811 56.6909 107.903 56.5528 107.95 56.3945L108.614 54.1728C108.702 53.8784 108.873 53.6219 109.103 53.44C109.334 53.2581 109.611 53.1602 109.896 53.1602C110.18 53.1602 110.458 53.2581 110.688 53.44C110.918 53.6219 111.09 53.8784 111.178 54.1728L111.842 56.3945C111.889 56.5528 111.981 56.6909 112.105 56.7887C112.228 56.8865 112.378 56.9391 112.531 56.9388H114.68C114.964 56.9388 115.242 57.0368 115.472 57.2187C115.702 57.4006 115.874 57.6571 115.961 57.9514C116.049 58.2457 116.049 58.5628 115.962 58.8571C115.874 59.1514 115.702 59.408 115.472 59.5899L113.733 60.9631C113.609 61.0606 113.517 61.1985 113.47 61.3567C113.423 61.515 113.423 61.6855 113.47 61.8437L114.134 64.0653C114.222 64.3597 114.222 64.6767 114.134 64.9711C114.046 65.2654 113.875 65.5219 113.645 65.7038C113.414 65.8857 113.137 65.9837 112.852 65.9837C112.568 65.9837 112.29 65.8858 112.06 65.7038L110.322 64.3308C110.198 64.2327 110.049 64.1799 109.896 64.1799C109.743 64.1799 109.594 64.2327 109.47 64.3308L107.731 65.7038C107.502 65.8879 107.224 65.9878 106.939 65.989ZM109.896 63.5017C110.18 63.5017 110.458 63.6 110.688 63.7824L112.426 65.1554C112.55 65.2532 112.699 65.3059 112.852 65.306C113.005 65.306 113.154 65.2533 113.278 65.1556C113.402 65.0578 113.494 64.9199 113.541 64.7617C113.589 64.6035 113.589 64.4331 113.541 64.2749L112.877 62.0532C112.789 61.7589 112.788 61.4416 112.877 61.1471C112.965 60.8527 113.136 60.5962 113.367 60.4147L115.105 59.0415C115.229 58.9437 115.321 58.8058 115.368 58.6476C115.416 58.4894 115.416 58.319 115.368 58.1608C115.321 58.0027 115.229 57.8648 115.105 57.767C114.982 57.6693 114.832 57.6166 114.679 57.6166H112.531C112.246 57.6172 111.968 57.5194 111.738 57.3374C111.508 57.1554 111.336 56.8986 111.249 56.604L110.585 54.3823C110.537 54.2241 110.445 54.0862 110.322 53.9884C110.198 53.8906 110.049 53.838 109.896 53.838C109.743 53.838 109.594 53.8906 109.47 53.9884C109.346 54.0862 109.254 54.2241 109.207 54.3823L108.543 56.604C108.455 56.8986 108.284 57.1554 108.053 57.3374C107.823 57.5194 107.545 57.6172 107.261 57.6166H105.112C104.959 57.6166 104.81 57.6692 104.686 57.767C104.562 57.8648 104.47 58.0026 104.423 58.1608C104.376 58.319 104.376 58.4894 104.423 58.6476C104.47 58.8058 104.562 58.9437 104.686 59.0415L106.425 60.4147C106.655 60.5962 106.827 60.8527 106.915 61.1472C107.003 61.4416 107.003 61.7589 106.914 62.0532L106.25 64.2749C106.203 64.4331 106.203 64.6035 106.25 64.7616C106.297 64.9198 106.39 65.0577 106.513 65.1555C106.637 65.2532 106.786 65.3059 106.939 65.3059C107.092 65.3059 107.241 65.2532 107.365 65.1554L109.103 63.7824C109.334 63.6 109.611 63.5018 109.896 63.5017Z" fill="#3F3D56"/>
<path d="M17.1457 10.1675C16.6083 10.1675 16.0929 10.3996 15.7129 10.8127C15.3329 11.2259 15.1194 11.7862 15.1194 12.3705C15.1194 12.9547 15.3329 13.5151 15.7129 13.9282C16.0929 14.3413 16.6083 14.5734 17.1457 14.5734H119.708C120.245 14.5734 120.761 14.3413 121.141 13.9282C121.521 13.5151 121.734 12.9547 121.734 12.3705C121.734 11.7862 121.521 11.2259 121.141 10.8127C120.761 10.3996 120.245 10.1675 119.708 10.1675H17.1457Z" fill="#CCCCCC"/>
<path d="M17.1457 21.6909C16.6083 21.6909 16.0929 21.923 15.7129 22.3362C15.3329 22.7493 15.1194 23.3096 15.1194 23.8939C15.1194 24.4782 15.3329 25.0385 15.7129 25.4516C16.0929 25.8648 16.6083 26.0969 17.1457 26.0969H119.708C120.245 26.0969 120.761 25.8648 121.141 25.4516C121.521 25.0385 121.734 24.4782 121.734 23.8939C121.734 23.3096 121.521 22.7493 121.141 22.3362C120.761 21.923 120.245 21.6909 119.708 21.6909H17.1457Z" fill="#CCCCCC"/>
<path d="M17.1457 33.2144C16.6083 33.2144 16.0929 33.4465 15.7129 33.8596C15.3329 34.2727 15.1194 34.8331 15.1194 35.4173C15.1194 36.0016 15.3329 36.5619 15.7129 36.9751C16.0929 37.3882 16.6083 37.6203 17.1457 37.6203H119.708C120.245 37.6203 120.761 37.3882 121.141 36.9751C121.521 36.5619 121.734 36.0016 121.734 35.4173C121.734 34.8331 121.521 34.2727 121.141 33.8596C120.761 33.4465 120.245 33.2144 119.708 33.2144H17.1457Z" fill="#CCCCCC"/>
<path d="M17.1457 10.1675C16.6083 10.1675 16.0929 10.3996 15.7129 10.8127C15.3329 11.2259 15.1194 11.7862 15.1194 12.3705C15.1194 12.9547 15.3329 13.5151 15.7129 13.9282C16.0929 14.3413 16.6083 14.5734 17.1457 14.5734H119.708C120.245 14.5734 120.761 14.3413 121.141 13.9282C121.521 13.5151 121.734 12.9547 121.734 12.3705C121.734 11.7862 121.521 11.2259 121.141 10.8127C120.761 10.3996 120.245 10.1675 119.708 10.1675H17.1457Z" fill="#CCCCCC"/>
<path d="M17.1457 21.6909C16.6083 21.6909 16.0929 21.923 15.7129 22.3362C15.3329 22.7493 15.1194 23.3096 15.1194 23.8939C15.1194 24.4782 15.3329 25.0385 15.7129 25.4516C16.0929 25.8648 16.6083 26.0969 17.1457 26.0969H119.708C120.245 26.0969 120.761 25.8648 121.141 25.4516C121.521 25.0385 121.734 24.4782 121.734 23.8939C121.734 23.3096 121.521 22.7493 121.141 22.3362C120.761 21.923 120.245 21.6909 119.708 21.6909H17.1457Z" fill="#CCCCCC"/>
<path d="M17.1457 33.2144C16.6083 33.2144 16.0929 33.4465 15.7129 33.8596C15.3329 34.2727 15.1194 34.8331 15.1194 35.4173C15.1194 36.0016 15.3329 36.5619 15.7129 36.9751C16.0929 37.3882 16.6083 37.6203 17.1457 37.6203H119.708C120.245 37.6203 120.761 37.3882 121.141 36.9751C121.521 36.5619 121.734 36.0016 121.734 35.4173C121.734 34.8331 121.521 34.2727 121.141 33.8596C120.761 33.4465 120.245 33.2144 119.708 33.2144H17.1457Z" fill="#CCCCCC"/>
</g>
<defs>
<clipPath id="clip0_130_190">
<rect width="250" height="182" fill="white"/>
</clipPath>
</defs>
</svg>
